Coordinates
version=1
nRows=4
nColumns=107
inDegrees=yes

Units are S.I. units (second, meters, Newtons, ...)
If the header above contains a line with 'inDegrees', this indicates whether rotational values are in degrees (yes) or radians (no).

endheader
time	sternoclavicular_r2	sternoclavicular_r3	unrotscap_r3	unrotscap_r2	acromioclavicular_r2	acromioclavicular_r3	acromioclavicular_r1	unrothum_r1	unrothum_r3	unrothum_r2	elv_angle	shoulder_elv	shoulder1_r2	shoulder_rot	elbow_flexion	pro_sup	deviation	flexion	proximal_distal_r1	proximal_distal_r3	cmc_flexion	cmc_abduction	mp_flexion	ip_flexion	mcp2_flexion	mcp2_abduction	pm2_flexion	md2_flexion	mcp3_flexion	mcp3_abduction	pm3_flexion	md3_flexion	mcp4_flexion	mcp4_abduction	pm4_flexion	md4_flexion	mcp5_flexion	mcp5_abduction	pm5_flexion	md5_flexion	bicpt_tx	bicpt_ty	bicpt_tz	bicpt2_tx	bicpt2_ty	bicpt2_tz	ptpt_tx	ptpt_ty	ptpt_tz	FCUpt_tx	FCUpt_ty	FCUpt_tz	EDCpt_tx	EDCpt_ty	EDCpt_tz	APLpt_tx	APLpt_ty	APLpt_tz	FPLpt_tx	FPLpt_ty	FPLpt_tz	FPLpt2_tx	FPLpt2_ty	FPLpt2_tz	PEC1pt2_tx	PEC1pt2_ty	PEC1pt2_tz	PEC1pt3_tx	PEC1pt3_ty	PEC1pt3_tz	PEC2pt2_tx	PEC2pt2_ty	PEC2pt2_tz	PEC2pt3_tx	PEC2pt3_ty	PEC2pt3_tz	PEC3pt2_tx	PEC3pt2_ty	PEC3pt2_tz	PEC3pt3_tx	PEC3pt3_ty	PEC3pt3_tz	DELT2pt2a_tx	DELT2pt2a_ty	DELT2pt2a_tz	DELT2pt2_tx	DELT2pt2_ty	DELT2pt2_tz	LAT1pt2_tx	LAT1pt2_ty	LAT1pt2_tz	LAT1pt3_tx	LAT1pt3_ty	LAT1pt3_tz	LAT2pt2_tx	LAT2pt2_ty	LAT2pt2_tz	LAT2pt3_tx	LAT2pt3_ty	LAT2pt3_tz	LAT3pt2_tx	LAT3pt2_ty	LAT3pt2_tz	LAT3pt3_tx	LAT3pt3_ty	LAT3pt3_tz
      1.40000000	     -0.32168891	      0.13625224	     -0.13625224	      0.32168891	     -0.06513546	      0.52640189	      0.23661403	     -0.23661403	     -0.52640189	      0.06513546	     99.46229262	     76.16270971	     -1.73594449	    -25.47662732	     29.99792143	     45.43564684	      0.21666752	     -0.02881910	      0.25562366	     -0.01440955	     36.39321015	      2.64777768	     -9.68303764	      7.25117529	     -4.29295653	      6.46828445	     24.32433564	    -12.72479600	     -7.23657814	     -3.99828680	     13.17329228	     14.44492538	     -4.35904206	     -7.19526610	      1.67156359	     21.06495778	    -10.95195100	    -13.45221325	     -2.97169839	      5.06169176	      0.00089224	     -0.03103822	     -0.00485381	      0.01655076	     -0.01834908	     -0.00686905	      0.00419282	     -0.06707081	     -0.00371009	      0.00833205	     -0.18337779	     -0.00041388	     -0.00545226	      0.00160592	      0.00009939	      0.00002879	      0.00001152	      0.00005758	      0.00003685	      0.00011056	      0.00006219	     -0.00001282	     -0.00017402	     -0.00020882	      0.00249645	      0.00875872	      0.00609302	     -0.00816634	      0.01971770	     -0.01870219	      0.00249645	      0.00875872	      0.00609302	      0.00055006	      0.01827907	     -0.00960497	      0.00394778	      0.00487061	      0.01596725	      0.00000000	      0.00775771	      0.00000000	     -0.00715084	     -0.03304618	     -0.00639647	      0.01673597	     -0.00060580	     -0.00542630	     -0.00088857	      0.01489405	     -0.00609302	      0.00245413	      0.02149483	     -0.01777131	     -0.00596608	      0.01290536	     -0.00545833	     -0.01243992	      0.02724935	     -0.03050742	     -0.02335658	      0.01442861	     -0.00732009	     -0.01548643	      0.03148061	     -0.03812370
      1.43333333	     -0.32723659	      0.13860198	     -0.13860198	      0.32723659	     -0.06625875	      0.53547994	      0.24069455	     -0.24069455	     -0.53547994	      0.06625875	     98.23745814	     77.47617221	     -1.71456709	    -18.95503641	     29.74706883	     40.22479296	      0.25053438	     -0.06185222	      0.28863539	     -0.03092611	     36.65836170	     -1.64649557	    -12.64617093	      8.07270499	     -3.09710775	      4.38242565	     25.54970348	    -12.60145013	     -4.84323170	     -4.54200143	     13.77424132	     14.56219031	     -1.65939603	     -7.52723944	      3.13905740	     20.99362148	     -8.53297043	    -13.33128812	     -2.19018448	      5.06359878	      0.00088394	     -0.03100947	     -0.00484918	      0.01657477	     -0.01828094	     -0.00744600	      0.00457784	     -0.06682185	     -0.00329032	      0.00780288	     -0.18349038	     -0.00038800	     -0.00482696	      0.00138939	      0.00014479	      0.00006008	      0.00002403	      0.00012016	      0.00007691	      0.00023072	      0.00012978	     -0.00001278	     -0.00016989	     -0.00020387	      0.00253950	      0.00890977	      0.00619810	     -0.00830717	      0.02005774	     -0.01902472	      0.00253950	      0.00890977	      0.00619810	      0.00055955	      0.01859430	     -0.00977061	      0.00399719	      0.00495461	      0.01608676	      0.00000000	      0.00802956	      0.00000000	     -0.00727416	     -0.03361608	     -0.00662211	      0.01316596	     -0.00040006	     -0.00294412	     -0.00090389	      0.01515091	     -0.00619810	      0.00249646	      0.02186552	     -0.01807779	     -0.00606897	      0.01312792	     -0.00555246	     -0.01265445	      0.02771928	     -0.03103354	     -0.02375938	      0.01467744	     -0.00744633	     -0.01575350	      0.03202351	     -0.03878116
      1.46666667	     -0.32693921	      0.13847602	     -0.13847602	      0.32693921	     -0.06619854	      0.53499330	      0.24047581	     -0.24047581	     -0.53499330	      0.06619854	     98.12629916	     77.40576291	     -1.71262700	    -19.15146673	     30.15459663	     40.26511765	      0.25289250	     -0.06811062	      0.29086394	     -0.03405531	     34.99137194	     -5.12229135	    -13.97636488	      7.88257998	     -2.04635843	      2.71850603	     26.39283005	    -12.36227026	     -3.66570619	     -4.65970163	     14.30719985	     14.70645622	     -0.60966223	     -7.42566429	      3.91039659	     21.25968121	     -8.10914746	    -12.65179923	     -1.51195458	      5.19451991	      0.00089742	     -0.03105618	     -0.00485670	      0.01657485	     -0.01839164	     -0.00744169	      0.00457486	     -0.06682377	     -0.00329357	      0.00780694	     -0.18348954	     -0.00038828	     -0.00483180	      0.00139104	      0.00014450	      0.00006581	      0.00002632	      0.00013162	      0.00008424	      0.00025272	      0.00014215	     -0.00001273	     -0.00019458	     -0.00023350	      0.00253719	      0.00890167	      0.00619247	     -0.00829962	      0.02003951	     -0.01900743	      0.00253719	      0.00890167	      0.00619247	      0.00055904	      0.01857740	     -0.00976174	      0.00399455	      0.00495011	      0.01608046	      0.00000000	      0.00801487	      0.00000000	     -0.00726755	     -0.03358553	     -0.00660991	      0.01328181	     -0.00040602	     -0.00300932	     -0.00090307	      0.01513714	     -0.00619247	      0.00249419	      0.02184564	     -0.01806136	     -0.00606346	      0.01311599	     -0.00554742	     -0.01264295	      0.02769409	     -0.03100533	     -0.02373779	      0.01466410	     -0.00743956	     -0.01573919	      0.03199441	     -0.03874592
      1.50000000	     -0.32710394	      0.13854579	     -0.13854579	      0.32710394	     -0.06623189	      0.53526287	      0.24059698	     -0.24059698	     -0.53526287	      0.06623189	     98.06622557	     77.44476540	     -1.71157852	    -19.08363569	     30.32477497	     40.42342480	      0.25439310	     -0.07562653	      0.29227721	     -0.03781326	     33.44210773	     -8.85125659	    -15.22038180	      7.67492453	     -1.05728651	      1.38572250	     27.08651432	    -12.18955019	     -2.33724838	     -4.57887855	     14.76688692	     14.81379410	      0.23185094	     -7.14086721	      4.48153556	     21.44796398	     -7.84549540	    -11.82256662	     -0.95550543	      5.25165253	      0.00090305	     -0.03107568	     -0.00485984	      0.01657507	     -0.01843787	     -0.00742475	      0.00456317	     -0.06683134	     -0.00330632	      0.00782289	     -0.18348624	     -0.00038938	     -0.00485080	      0.00139749	      0.00014335	      0.00007259	      0.00002904	      0.00014518	      0.00009291	      0.00027874	      0.00015679	     -0.00001206	     -0.00021489	     -0.00025786	      0.00253847	      0.00890616	      0.00619559	     -0.00830381	      0.02004961	     -0.01901701	      0.00253847	      0.00890616	      0.00619559	      0.00055932	      0.01858676	     -0.00976665	      0.00399601	      0.00495260	      0.01608396	      0.00000000	      0.00802300	      0.00000000	     -0.00727121	     -0.03360245	     -0.00661666	      0.01324225	     -0.00040395	     -0.00298627	     -0.00090352	      0.01514477	     -0.00619559	      0.00249544	      0.02185665	     -0.01807046	     -0.00606651	      0.01312260	     -0.00555021	     -0.01264932	      0.02770804	     -0.03102096	     -0.02374975	      0.01467149	     -0.00744331	     -0.01574712	      0.03201053	     -0.03876544
